<svg xmlns="http://www.w3.org/2000/svg" xmlns:xlink="http://www.w3.org/1999/xlink" version="1.1" x="0px" y="0px" viewBox="0 0 24 30" style="enable-background:new 0 0 24 24;" xml:space="preserve"><g><path d="M17,4h-1c0-1.1-0.9-2-2-2h-4C8.9,2,8,2.9,8,4H7C5.3,4,4,5.3,4,7v12c0,1.7,1.3,3,3,3h10c1.7,0,3-1.3,3-3V7   C20,5.3,18.7,4,17,4z M18,19c0,0.6-0.4,1-1,1H7c-0.6,0-1-0.4-1-1V7c0-0.6,0.4-1,1-1h10c0.6,0,1,0.4,1,1V19z"/><path d="M15,8H9C8.4,8,8,8.4,8,9s0.4,1,1,1h6c0.6,0,1-0.4,1-1S15.6,8,15,8z"/><path d="M15,12H9c-0.6,0-1,0.4-1,1s0.4,1,1,1h6c0.6,0,1-0.4,1-1S15.6,12,15,12z"/><path d="M12,16H9c-0.6,0-1,0.4-1,1s0.4,1,1,1h3c0.6,0,1-0.4,1-1S12.6,16,12,16z"/></g><text x="0" y="39" fill="#000000" font-size="5px" font-weight="bold" font-family="'Helvetica Neue', Helvetica, Arial-Unicode, Arial, Sans-serif">Created by Mas Dhimas</text><text x="0" y="44" fill="#000000" font-size="5px" font-weight="bold" font-family="'Helvetica Neue', Helvetica, Arial-Unicode, Arial, Sans-serif">from the Noun Project</text></svg>